<svg width="282" height="84" viewBox="0 0 282 84" fill="none" xmlns="http://www.w3.org/2000/svg">
<path d="M80.41 0.910004C66.47 0.910004 55.13 12.25 55.13 26.18C55.13 40.11 66.47 51.46 80.41 51.46C86.24 51.46 91.6 49.46 95.88 46.13V50.05H105.68V26.19C105.68 12.24 94.35 0.910004 80.41 0.910004ZM80.41 41.65C71.88 41.65 64.94 34.71 64.94 26.18C64.94 17.65 71.88 10.71 80.41 10.71C88.94 10.71 95.88 17.65 95.88 26.18C95.88 34.71 88.94 41.65 80.41 41.65Z" fill="black"/>
<path d="M25.58 0.910004C11.64 0.910004 0.309998 12.25 0.309998 26.18V83.81H10.11V46.12C14.39 49.45 19.75 51.45 25.58 51.45C39.52 51.45 50.86 40.11 50.86 26.17C50.86 12.23 39.52 0.910004 25.58 0.910004ZM25.58 41.65C17.05 41.65 10.11 34.71 10.11 26.18C10.11 17.65 17.05 10.71 25.58 10.71C34.11 10.71 41.05 17.65 41.05 26.18C41.06 34.71 34.12 41.65 25.58 41.65Z" fill="black"/>
<path d="M106.24 83.81H117L153.86 2.29H143.11L129.23 33.11L114.29 2.29H103.4L123.82 45.12L106.24 83.81Z" fill="black"/>
<path d="M178.5 41.65C170.66 41.65 164.16 35.78 163.16 28.21L202.42 28.3C202.48 27.17 202.51 25.35 202.2 23.15C202.05 22.09 199.88 8.47 188.27 3.02C187.03 2.44 183.32 0.900002 178.5 0.900002C164.56 0.900002 153.23 12.24 153.23 26.17C153.23 40.1 164.57 51.45 178.5 51.45C188.68 51.45 197.82 45.39 201.79 36.01H190.45C187.55 39.53 183.21 41.65 178.5 41.65ZM178.5 10.71C183.98 10.71 188.41 13.62 190.77 18.47L165.12 18.41C167.81 13.81 172.8 10.71 178.5 10.71Z" fill="black"/>
<path d="M231.53 41.65C223.69 41.65 217.19 35.78 216.19 28.21L255.45 28.3C255.51 27.17 255.54 25.35 255.23 23.15C255.08 22.09 252.91 8.47 241.3 3.02C240.06 2.44 236.35 0.900002 231.53 0.900002C217.59 0.900002 206.26 12.24 206.26 26.17C206.26 40.1 217.6 51.45 231.53 51.45C241.71 51.45 250.85 45.39 254.82 36.01H243.48C240.58 39.53 236.23 41.65 231.53 41.65ZM231.53 10.71C237.01 10.71 241.44 13.62 243.8 18.47L218.15 18.41C220.84 13.81 225.83 10.71 231.53 10.71Z" fill="black"/>
<path d="M272.1 51.46C277.418 51.46 281.73 47.1485 281.73 41.83C281.73 36.5115 277.418 32.2 272.1 32.2C266.781 32.2 262.47 36.5115 262.47 41.83C262.47 47.1485 266.781 51.46 272.1 51.46Z" fill="#455BED"/>
</svg>
